<?xml version="1.0" encoding="UTF-8" standalone="no"?>
<svg
   xmlns:dc="http://purl.org/dc/elements/1.1/"
   xmlns:cc="http://creativecommons.org/ns#"
   xmlns:rdf="http://www.w3.org/1999/02/22-rdf-syntax-ns#"
   xmlns:svg="http://www.w3.org/2000/svg"
   xmlns="http://www.w3.org/2000/svg"
   xmlns:sodipodi="http://sodipodi.sourceforge.net/DTD/sodipodi-0.dtd"
   xmlns:inkscape="http://www.inkscape.org/namespaces/inkscape"
   width="48"
   height="48"
   viewBox="0 0 12.7 12.7"
   version="1.1"
   id="svg8"
   sodipodi:docname="andydevs-logo.svg"
   inkscape:version="1.0 (4035a4fb49, 2020-05-01)">
  <defs
     id="defs2">
    <inkscape:path-effect
       effect="fillet_chamfer"
       id="path-effect851"
       is_visible="true"
       lpeversion="1"
       satellites_param="F,0,0,1,0,0.52916667,0,1 @ F,0,0,1,0,0.52916667,0,1 @ F,0,0,1,0,0.52916667,0,1 @ F,0,0,1,0,0.52916667,0,1 @ F,0,0,1,0,0.26225166,0,1 @ F,0,0,1,0,0.52916667,0,1 @ F,0,0,1,0,0.33438798,0,1"
       unit="px"
       method="auto"
       mode="F"
       radius="2"
       chamfer_steps="1"
       flexible="false"
       use_knot_distance="true"
       apply_no_radius="true"
       apply_with_radius="true"
       only_selected="false"
       hide_knots="false" />
    <inkscape:path-effect
       effect="fillet_chamfer"
       id="path-effect24"
       is_visible="true"
       lpeversion="1"
       satellites_param="F,0,0,1,0,0.52916667,0,1 @ F,0,0,1,0,0.52916667,0,1 @ F,0,0,1,0,0.52916667,0,1 @ F,0,0,1,0,0.52916667,0,1 @ F,0,0,1,0,0.52916667,0,1 @ F,0,0,1,0,0.52916667,0,1"
       unit="px"
       method="auto"
       mode="F"
       radius="2"
       chamfer_steps="1"
       flexible="false"
       use_knot_distance="true"
       apply_no_radius="true"
       apply_with_radius="true"
       only_selected="false"
       hide_knots="false" />
  </defs>
  <sodipodi:namedview
     id="base"
     pagecolor="#ffffff"
     bordercolor="#666666"
     borderopacity="1.0"
     inkscape:pageopacity="0.0"
     inkscape:pageshadow="2"
     inkscape:zoom="10.903908"
     inkscape:cx="11.659736"
     inkscape:cy="26.034634"
     inkscape:document-units="mm"
     inkscape:current-layer="layer1"
     inkscape:document-rotation="0"
     showgrid="false"
     inkscape:window-width="1920"
     inkscape:window-height="1017"
     inkscape:window-x="-8"
     inkscape:window-y="-8"
     inkscape:window-maximized="1"
     units="px"
     inkscape:showpageshadow="false" />
  <metadata
     id="metadata5">
    <rdf:RDF>
      <cc:Work
         rdf:about="">
        <dc:format>image/svg+xml</dc:format>
        <dc:type
           rdf:resource="http://purl.org/dc/dcmitype/StillImage" />
        <dc:title />
      </cc:Work>
    </rdf:RDF>
  </metadata>
  <g
     inkscape:label="Layer 1"
     inkscape:groupmode="layer"
     id="layer1">
    <path
       sodipodi:type="star"
       style="fill:#0088cc;fill-opacity:1;stroke-width:2.98719;stroke-linecap:round;stroke-linejoin:round"
       id="path20"
       sodipodi:sides="6"
       sodipodi:cx="6.35"
       sodipodi:cy="6.3499999"
       sodipodi:r1="5.7474813"
       sodipodi:r2="4.9774656"
       sodipodi:arg1="1.0471976"
       sodipodi:arg2="1.5707963"
       inkscape:flatsided="true"
       inkscape:rounded="-3.1225e-17"
       inkscape:randomized="0"
       d="m 8.6945737,11.327465 -4.689148,0 a 0.91654356,0.91654356 30.000003 0 1 -0.79375,-0.458272 L 0.86710187,6.8082714 a 0.91654356,0.91654356 90.000003 0 1 5e-8,-0.9165435 L 3.2116761,1.8308067 a 0.91654356,0.91654356 150 0 1 0.79375,-0.4582718 l 4.6891481,3e-7 A 0.91654356,0.91654356 30.000003 0 1 9.4883241,1.830807 l 2.3445739,4.0609214 a 0.91654356,0.91654356 90.000003 0 1 0,0.9165436 l -2.3445743,4.060921 a 0.91654356,0.91654356 150 0 1 -0.79375,0.458272 z"
       inkscape:path-effect="#path-effect24" />
    <path
       style="fill:#ffffff;fill-opacity:1;stroke:none;stroke-width:0.131035px;stroke-linecap:butt;stroke-linejoin:miter;stroke-opacity:1"
       d="M 4.7168061,3.9199016 8.6245352,5.492322 A 0.78333022,0.78333022 55.959612 0 1 9.115449,6.2190261 v 0.016744 A 0.79945855,0.79945855 123.50083 0 1 8.6283425,6.9716842 L 4.743292,8.620658 A 0.35025876,0.35025876 33.500827 0 1 4.2561855,8.2982391 V 8.1021616 A 0.37938541,0.37938541 124.65432 0 1 4.5015212,7.7472475 L 8.0629578,6.4021065 A 0.19878568,0.19878568 89.897729 0 0 8.0622935,6.02993 L 4.5331728,4.7113712 A 0.4784019,0.4784019 55.439164 0 1 4.2222188,4.2599579 l 5.77e-5,-0.00844 A 0.36010947,0.36010947 146.15537 0 1 4.7168061,3.9199016 Z"
       id="path849"
       sodipodi:nodetypes="cccccccc"
       inkscape:path-effect="#path-effect851"
       inkscape:original-d="M 4.2258923,3.7223642 9.115449,5.6898594 v 1.075077 L 4.2561855,8.8274058 V 7.8399099 L 8.5579918,6.215134 4.2199339,4.5943381 Z" />
  </g>
</svg>
