<?xml version="1.0" encoding="UTF-8" standalone="no"?>
<svg
	xmlns="http://www.w3.org/2000/svg"
	id="svg8"
	version="1.1"
	preserveAspectRatio="xMidYMid meet"
	viewBox="0 0 12.7 12.7"
	height="75%"
	width="75%">
  	<g id="layer1">
		<path
		d="m 8.6945737,11.327465 -4.689148,0 a 0.91654356,0.91654356 30.000003 0 1 -0.79375,-0.458272 L 0.86710187,6.8082714 a 0.91654356,0.91654356 90.000003 0 1 5e-8,-0.9165435 L 3.2116761,1.8308067 a 0.91654356,0.91654356 150 0 1 0.79375,-0.4582718 l 4.6891481,3e-7 A 0.91654356,0.91654356 30.000003 0 1 9.4883241,1.830807 l 2.3445739,4.0609214 a 0.91654356,0.91654356 90.000003 0 1 0,0.9165436 l -2.3445743,4.060921 a 0.91654356,0.91654356 150 0 1 -0.79375,0.458272 z"
		id="path20"
		style="fill:#0077ff;fill-opacity:1;stroke-width:2.98719;stroke-linecap:round;stroke-linejoin:round"/>
		<g
			aria-label="&gt;"
			id="text30"
			style="font-style:normal;font-variant:normal;font-weight:normal;font-stretch:normal;font-size:8.96531px;line-height:1.25;font-family:Rubik;font-variant-ligatures:normal;font-variant-caps:normal;font-variant-numeric:normal;font-variant-east-asian:normal;text-align:center;text-anchor:middle;fill:#ffdd00;fill-opacity:1;stroke-width:0.224133">
			<path
				d="m 4.9753331,8.7828645 q -0.071722,0 -0.1255144,-0.044827 -0.053792,-0.044827 -0.053792,-0.1344797 V 8.2090847 q 0,-0.1075837 0.044827,-0.1703409 0.053792,-0.062757 0.1613756,-0.1255143 L 7.3959668,6.2725777 5.002229,4.631926 Q 4.8946453,4.5602035 4.8408534,4.4974463 4.7960268,4.4346891 4.7960268,4.3271054 V 3.9326318 q 0,-0.089653 0.053792,-0.1344797 0.053792,-0.044826 0.1255144,-0.044826 0.053792,0 0.116549,0.035861 0.062757,0.026896 0.098618,0.053792 l 2.8151074,1.936507 q 0.1434449,0.098618 0.1972368,0.1882715 0.062757,0.089653 0.062757,0.2241327 v 0.1524103 q 0,0.1255143 -0.062757,0.2241327 -0.053792,0.089653 -0.1972368,0.1882716 L 5.1905005,8.6932114 q -0.035861,0.026896 -0.098618,0.062757 -0.062757,0.026896 -0.116549,0.026896 z"
				style="font-style:normal;font-variant:normal;font-weight:normal;font-stretch:normal;font-size:8.96531px;font-family:Rubik;font-variant-ligatures:normal;font-variant-caps:normal;font-variant-numeric:normal;font-variant-east-asian:normal;fill:#ffdd00;fill-opacity:1;stroke-width:0.224133"
				id="path843"/>
    	</g>
  	</g>
</svg>
